<?xml version="1.0" encoding="UTF-8"?>
<svg version="1.1" viewBox="0 0 128 128" xmlns="http://www.w3.org/2000/svg" xmlns:sodipodi0="http://sodipodi.sourceforge.net/DTD/sodipodi-0.0.dtd" xmlns:xlink="http://www.w3.org/1999/xlink">
 <rect width="128" height="128" rx="14" fill="#0d0d0d"/>
 <rect x="6" y="6" width="116" height="116" rx="8"/>
 <svg x="8" y="28" width="112" height="70" preserveAspectRatio="xMidYMid slice" version="1.1" viewBox="0 0 1680 1050">
  <defs>
   <pattern id="m" patternTransform="matrix(-2.1381 0 0 34.246 708.44 454.96)" xlink:href="#a"/>
   <pattern id="f" patternTransform="translate(-1.055 -1.642) scale(10.023)" xlink:href="#b"/>
   <pattern id="b" width="2" height="1" patternTransform="scale(10)" patternUnits="userSpaceOnUse">
    <path d="M0-.5h1v2H0z"/>
   </pattern>
   <pattern id="a" patternTransform="matrix(3.3986 0 0 22.335 555.44 454.96)" xlink:href="#c"/>
   <pattern id="c" width="2" height="1" patternTransform="scale(10)" patternUnits="userSpaceOnUse">
    <path d="M0-.5h1v2H0z"/>
   </pattern>
   <pattern id="o" patternTransform="matrix(-.96284 0 0 -1.4943 890.37 563.66)" xlink:href="#d"/>
   <pattern id="d" width="2" height="1" patternTransform="scale(10)" patternUnits="userSpaceOnUse">
    <path d="M0-.5h1v2H0z"/>
   </pattern>
   <pattern id="p" patternTransform="matrix(.6358 0 0 2.2532 1042.6 563.56)" xlink:href="#e"/>
   <pattern id="e" width="2" height="1" patternTransform="scale(10)" patternUnits="userSpaceOnUse">
    <path d="M0-.5h1v2H0z"/>
   </pattern>
  </defs>
  <g transform="translate(0 -2.362)">
   <path d="M1560.5 947.17h75.847v76.329H1560.5zm0-76.33h75.847v76.329H1560.5zm0-76.33h75.847v76.329H1560.5zm0-76.33h75.847v76.329H1560.5z" style="fill-rule:evenodd;fill:gray;stroke-linecap:square;stroke-width:1.541;stroke:#fff"/>
   <path d="M1560.5 641.86h75.847v76.329H1560.5zm0-76.33h75.847v76.329H1560.5zm0-76.33h75.847v76.329H1560.5zm0-76.33h75.847v76.329H1560.5zm0-76.33h75.847v76.329H1560.5zm0-76.33h75.847v76.329H1560.5zm0-76.33h75.847v76.329H1560.5zm0-76.33h75.847v76.329H1560.5z" style="fill-rule:evenodd;fill:gray;stroke-linecap:square;stroke-width:1.541;stroke:#fff"/>
   <path d="M1560.5 31.225h75.847v76.329H1560.5zm-75.8 915.945h75.847v76.329H1484.7zm0-76.33h75.847v76.329H1484.7zm0-76.33h75.847v76.329H1484.7zm0-76.33h75.847v76.329H1484.7z" style="fill-rule:evenodd;fill:gray;stroke-linecap:square;stroke-width:1.541;stroke:#fff"/>
   <path d="M1484.7 641.86h75.847v76.329H1484.7zm0-76.33h75.847v76.329H1484.7zm0-76.33h75.847v76.329H1484.7zm0-76.33h75.847v76.329H1484.7zm0-76.33h75.847v76.329H1484.7zm0-76.33h75.847v76.329H1484.7zm0-76.33h75.847v76.329H1484.7zm0-76.33h75.847v76.329H1484.7z" style="fill-rule:evenodd;fill:gray;stroke-linecap:square;stroke-width:1.541;stroke:#fff"/>
   <path d="M1484.7 31.225h75.847v76.329H1484.7zm-75.8 915.945h75.847v76.329H1408.9zm0-76.33h75.847v76.329H1408.9zm0-76.33h75.847v76.329H1408.9zm0-76.33h75.847v76.329H1408.9z" style="fill-rule:evenodd;fill:gray;stroke-linecap:square;stroke-width:1.541;stroke:#fff"/>
   <path d="M1408.9 641.86h75.847v76.329H1408.9zm0-76.33h75.847v76.329H1408.9zm0-76.33h75.847v76.329H1408.9zm0-76.33h75.847v76.329H1408.9zm0-76.33h75.847v76.329H1408.9zm0-76.33h75.847v76.329H1408.9zm0-76.33h75.847v76.329H1408.9zm0-76.33h75.847v76.329H1408.9z" style="fill-rule:evenodd;fill:gray;stroke-linecap:square;stroke-width:1.541;stroke:#fff"/>
   <path d="M1408.9 31.225h75.847v76.329H1408.9zM1333 947.17h75.847v76.329H1333z" style="fill-rule:evenodd;fill:gray;stroke-linecap:square;stroke-width:1.541;stroke:#fff"/>
   <path d="M1333 527.11v420.07h75.844V527.11z" style="fill-rule:evenodd;fill:#8000ff"/>
   <path d="m1333 107.55v419.56h75.844v-419.56z" style="fill-rule:evenodd;fill:#80ff00"/>
   <path d="M1333 31.225h75.847v76.329H1333zm-75.8 915.945h75.847v76.329H1257.2z" style="fill-rule:evenodd;fill:gray;stroke-linecap:square;stroke-width:1.541;stroke:#fff"/>
   <path transform="translate(0 2.362)" d="m1257.2 792.16v152.66h75.844v-152.66z" style="fill-rule:evenodd;fill:#ff8000"/>
   <path d="M1257.2 718.18h75.847v76.329H1257.2z" style="fill-rule:evenodd;fill:gray;stroke-linecap:square;stroke-width:1.541;stroke:#fff"/>
   <path transform="translate(0 2.362)" d="m1257.2 701.78v14.031h75.844v-76.312h-54.688c-1.768 6.786-3.648 13.529-5.719 20.188a450 450 0 01-7.125 21.062 449 449 0 01-8.093 20.562c-.068.16-.152.31-.22.469z" style="fill-rule:evenodd;fill:gray;stroke-linecap:square;stroke-width:1.541;stroke:#fff"/>
   <path transform="translate(0 2.362)" d="m1278.3 639.5h54.688v-76.344h-41.75c-.227 2.714-.35 5.456-.625 8.156a453 453 0 01-2.875 22.656 452 452 0 01-4 22.312 450 450 0 01-5.062 21.906c-.114.442-.26.871-.375 1.313z" style="fill-rule:evenodd;fill:gray;stroke-linecap:square;stroke-width:1.541;stroke:#fff"/>
   <path transform="translate(0 2.362)" d="m1291.2 563.16h41.75v-76.312h-41.75c.412 4.939.872 9.861 1.125 14.844.391 7.72.594 15.495.594 23.312s-.203 15.592-.594 23.312c-.253 4.982-.713 9.905-1.125 14.844z" style="fill-rule:evenodd;fill:gray;stroke-linecap:square;stroke-width:1.541;stroke:#fff"/>
   <path d="M1257.2 412.87h75.847v76.329H1257.2zm0-76.33h75.847v76.329H1257.2zm0-76.33h75.847v76.329H1257.2z" style="fill-rule:evenodd;fill:gray;stroke-linecap:square;stroke-width:1.541;stroke:#fff"/>
   <path transform="translate(0 2.362)" d="m1257.2 105.19v152.66h75.844v-152.66z" style="fill-rule:evenodd;fill:#0080ff"/>
   <path d="M1257.2 31.225h75.847v76.329H1257.2zm-75.9 915.945h75.847v76.329H1181.3zm0-76.33h75.847v76.329H1181.3z" style="fill-rule:evenodd;fill:gray;stroke-linecap:square;stroke-width:1.541;stroke:#fff"/>
   <path transform="translate(0 2.362)" d="m1181.3 822.59v45.875h75.844v-76.312h-51.469c-.927 1.267-1.78 2.587-2.719 3.844a455 455 0 01-13.438 17.125c-2.66 3.223-5.472 6.321-8.218 9.469z" style="fill-rule:evenodd;fill:gray;stroke-linecap:square;stroke-width:1.541;stroke:#fff"/>
   <path transform="translate(0 2.362)" d="m1205.7 792.16h51.469v-76.344h-6.344c-.858 1.845-1.648 3.731-2.531 5.563a451 451 0 01-32.687 56.875c-3.19 4.722-6.545 9.313-9.906 13.906zm45.1-76.35h6.344v-14.031c-2.008 4.733-4.181 9.383-6.344 14.031z" style="fill-rule:evenodd;fill:gray;stroke-linecap:square;stroke-width:1.541;stroke:#fff"/>
   <path d="M1181.3 412.87h75.847v76.329H1181.3z" style="fill-rule:evenodd;fill:gray;stroke-linecap:square;stroke-width:1.541;stroke:#fff"/>
   <path d="M1181.3 489.2h75.847v76.329H1181.3z" style="fill-rule:evenodd"/>
   <path d="M1181.3 336.54h75.847v76.329H1181.3z" style="fill-rule:evenodd;fill:gray;stroke-linecap:square;stroke-width:1.541;stroke:#fff"/>
   <path transform="translate(0 2.362)" d="m1250.8 334.19h6.344v-76.344h-51.47c3.362 4.593 6.717 9.184 9.907 13.906a453 453 0 0122.687 37.344 452 452 0 0110 19.531c.882 1.831 1.673 3.718 2.531 5.563z" style="fill-rule:evenodd;fill:gray;stroke-linecap:square;stroke-width:1.541;stroke:#fff"/>
   <path transform="translate(0 2.362)" d="m1250.8 334.19c-.858-1.845-1.649-3.731-2.531-5.562a451 451 0 00-32.687-56.875c-3.19-4.723-6.545-9.314-9.907-13.906h-24.375v76.344z" style="fill-rule:evenodd;fill:#bfbfbf;stroke-width:0"/>
   <path transform="translate(0 2.362)" d="m1205.7 257.84h51.469v-76.312h-75.844v45.875c2.747 3.148 5.559 6.245 8.219 9.469a456 456 0 0113.438 17.125c.94 1.256 1.792 2.577 2.718 3.844z" style="fill-rule:evenodd;fill:gray;stroke-linecap:square;stroke-width:1.541;stroke:#fff"/>
   <path d="M1181.3 107.55h75.847v76.329H1181.3z" style="fill-rule:evenodd;fill:gray;stroke-linecap:square;stroke-width:1.541;stroke:#fff"/>
   <path d="M1181.3 31.225h75.847v76.329H1181.3zm-75.8 915.945h75.847v76.329H1105.5zm0-76.33h75.847v76.329H1105.5z" style="fill-rule:evenodd;fill:gray;stroke-linecap:square;stroke-width:1.541;stroke:#fff"/>
   <path transform="translate(0 2.362)" d="m1135.1 868.47h46.188v-45.875c-2.019 2.314-3.966 4.697-6.031 6.969a455 455 0 01-15 15.719 455 455 0 01-15.72 15c-3.08 2.8-6.28 5.473-9.437 8.187z" style="fill-rule:evenodd;fill:gray;stroke-linecap:square;stroke-width:1.541;stroke:#fff"/>
   <path d="M1105.5 412.87h75.847v76.329H1105.5z" style="fill-rule:evenodd;fill:gray;stroke-linecap:square;stroke-width:1.541;stroke:#fff"/>
   <path d="M1105.5 489.2h75.847v76.329H1105.5z" style="fill-rule:evenodd"/>
   <path d="M1105.5 336.54h75.847v76.329H1105.5zm0-76.33h75.847v76.329H1105.5z" style="fill-rule:evenodd;fill:gray;stroke-linecap:square;stroke-width:1.541;stroke:#fff"/>
   <path transform="translate(0 2.362)" d="m1291.2 563.16c.412-4.939.872-9.861 1.125-14.844.391-7.72.594-15.495.594-23.312s-.203-15.592-.594-23.312c-.253-4.982-.713-9.905-1.125-14.844h-34.094v76.312z" style="fill-rule:evenodd"/>
   <path transform="translate(0 2.362)" d="m1143.4 334.19v152.66h147.97c-4.517-54.15-18.518-105.6-40.406-152.66h-107.56z" style="fill-rule:evenodd;fill:#00f"/>
   <path transform="translate(0 2.362)" d="m1181.3 227.41v-45.875h-46.188c3.156 2.715 6.358 5.388 9.437 8.188a455 455 0 0115.72 15 455 455 0 0115 15.718c2.064 2.272 4.012 4.656 6.03 6.97z" style="fill-rule:evenodd;fill:gray;stroke-linecap:square;stroke-width:1.541;stroke:#fff"/>
   <path d="M1105.5 107.55h75.847v76.329H1105.5z" style="fill-rule:evenodd;fill:gray;stroke-linecap:square;stroke-width:1.541;stroke:#fff"/>
   <path d="M1105.5 31.225h75.847v76.329H1105.5zm-75.9 915.945h75.847v76.329H1029.6zm0-76.33h75.847v76.329H1029.6zm0-457.97h75.847v76.329H1029.6z" style="fill-rule:evenodd;fill:gray;stroke-linecap:square;stroke-width:1.541;stroke:#fff"/>
   <path d="M1029.6 489.2h75.847v76.329H1029.6z" style="fill-rule:evenodd"/>
   <path d="M1029.6 336.54h75.847v76.329H1029.6zm0-76.33h75.847v76.329H1029.6zm0-152.66h75.847v76.329H1029.6z" style="fill-rule:evenodd;fill:gray;stroke-linecap:square;stroke-width:1.541;stroke:#fff"/>
   <path d="M1029.6 31.225h75.847v76.329H1029.6zM953.77 947.17h75.847v76.329H953.77zm0-76.33h75.847v76.329H953.77z" style="fill-rule:evenodd;fill:gray;stroke-linecap:square;stroke-width:1.541;stroke:#fff"/>
   <path d="M991.74 718.18h151.17v76.329H991.74z" style="fill-rule:evenodd;fill:#ccc"/>
   <path d="M953.77 412.87h75.847v76.329H953.77z" style="fill-rule:evenodd;fill:gray;stroke-linecap:square;stroke-width:1.541;stroke:#fff"/>
   <path d="M953.77 489.2h75.847v76.329H953.77z" style="fill-rule:evenodd"/>
   <path d="M953.77 336.54h75.847v76.329H953.77zm0-76.33h75.847v76.329H953.77zm0-76.33h75.847v76.329H953.77zm0-76.33h75.847v76.329H953.77z" style="fill-rule:evenodd;fill:gray;stroke-linecap:square;stroke-width:1.541;stroke:#fff"/>
   <path d="M953.77 31.225h75.847v76.329H953.77zM877.92 947.17h75.847v76.329H877.92zm0-76.33h75.847v76.329H877.92zm0-457.97h75.847v76.329H877.92z" style="fill-rule:evenodd;fill:gray;stroke-linecap:square;stroke-width:1.541;stroke:#fff"/>
   <path d="M877.92 489.2h75.847v76.329H877.92z" style="fill-rule:evenodd"/>
   <path d="M877.92 336.54h75.847v76.329H877.92zm0-76.33h75.847v76.329H877.92zm0-76.33h75.847v76.329H877.92zm0-76.33h75.847v76.329H877.92z" style="fill-rule:evenodd;fill:gray;stroke-linecap:square;stroke-width:1.541;stroke:#fff"/>
   <path d="M877.92 31.225h75.847v76.329H877.92zM802.08 947.17h75.847v76.329H802.08zm0-76.33h75.847v76.329H802.08z" style="fill-rule:evenodd;fill:gray;stroke-linecap:square;stroke-width:1.541;stroke:#fff"/>
   <path d="M840 718.18h151.74v76.329H840z" style="fill-rule:evenodd;fill:#999"/>
   <path d="M802.08 565.53h75.847v76.329H802.08z" style="fill-rule:evenodd;fill:gray;stroke-linecap:square;stroke-width:1.541;stroke:#fff"/>
   <path d="M802.08 489.2h75.847v76.329H802.08z" style="fill-rule:evenodd;stroke-linecap:square;stroke-width:1.541;stroke:#fff"/>
   <path d="M802.08 412.87h75.847v76.329H802.08zm0-76.33h75.847v76.329H802.08zm0-76.33h75.847v76.329H802.08zm0-76.33h75.847v76.329H802.08zm0-76.33h75.847v76.329H802.08z" style="fill-rule:evenodd;fill:gray;stroke-linecap:square;stroke-width:1.541;stroke:#fff"/>
   <path d="M802.08 31.225h75.847v76.329H802.08zM726.23 947.17h75.847v76.329H726.23zm0-76.33h75.847v76.329H726.23zm0-457.97h75.847v76.329H726.23z" style="fill-rule:evenodd;fill:gray;stroke-linecap:square;stroke-width:1.541;stroke:#fff"/>
   <path d="M726.23 489.2h75.847v76.329H726.23z" style="fill-rule:evenodd"/>
   <path d="M726.23 336.54h75.847v76.329H726.23zm0-76.33h75.847v76.329H726.23zm0-76.33h75.847v76.329H726.23zm0-76.33h75.847v76.329H726.23z" style="fill-rule:evenodd;fill:gray;stroke-linecap:square;stroke-width:1.541;stroke:#fff"/>
   <path d="M726.23 31.225h75.847v76.329H726.23zM650.38 947.17h75.847v76.329H650.38zm0-76.33h75.847v76.329H650.38z" style="fill-rule:evenodd;fill:gray;stroke-linecap:square;stroke-width:1.541;stroke:#fff"/>
   <path d="M687.37 718.18H840v76.329H687.37z" style="fill-rule:evenodd;fill:#666"/>
   <path d="M650.38 412.87h75.847v76.329H650.38z" style="fill-rule:evenodd;fill:gray;stroke-linecap:square;stroke-width:1.541;stroke:#fff"/>
   <path d="M650.38 489.2h75.847v76.329H650.38z" style="fill-rule:evenodd"/>
   <path d="M650.38 336.54h75.847v76.329H650.38zm0-76.33h75.847v76.329H650.38zm0-76.33h75.847v76.329H650.38zm0-76.33h75.847v76.329H650.38z" style="fill-rule:evenodd;fill:gray;stroke-linecap:square;stroke-width:1.541;stroke:#fff"/>
   <path d="M650.38 31.225h75.847v76.329H650.38zM574.54 947.17h75.847v76.329H574.54zm0-76.33h75.847v76.329H574.54zm0-457.97h75.847v76.329H574.54z" style="fill-rule:evenodd;fill:gray;stroke-linecap:square;stroke-width:1.541;stroke:#fff"/>
   <path d="M574.54 489.2h75.847v76.329H574.54z" style="fill-rule:evenodd"/>
   <path d="M574.54 336.54h75.847v76.329H574.54zm0-76.33h75.847v76.329H574.54zm0-152.66h75.847v76.329H574.54z" style="fill-rule:evenodd;fill:gray;stroke-linecap:square;stroke-width:1.541;stroke:#fff"/>
   <path d="M574.54 31.225h75.847v76.329H574.54zM498.69 947.17h75.847v76.329H498.69zm0-76.33h75.847v76.329H498.69z" style="fill-rule:evenodd;fill:gray;stroke-linecap:square;stroke-width:1.541;stroke:#fff"/>
   <path transform="translate(0 2.362)" d="m498.69 822.59v45.875h46.188c-3.156-2.715-6.358-5.388-9.437-8.187a455 455 0 01-15.72-15 455 455 0 01-15-15.72c-2.064-2.271-4.012-4.655-6.03-6.968z" style="fill-rule:evenodd;fill:gray;stroke-linecap:square;stroke-width:1.541;stroke:#fff"/>
   <path d="M537.64 718.18h149.73v76.329H537.64z" style="fill-rule:evenodd;fill:#333"/>
   <path d="M498.69 412.87h75.847v76.329H498.69z" style="fill-rule:evenodd;fill:gray;stroke-linecap:square;stroke-width:1.541;stroke:#fff"/>
   <path d="M498.69 489.2h75.847v76.329H498.69z" style="fill-rule:evenodd"/>
   <path d="M498.69 336.54h75.847v76.329H498.69zm0-76.33h75.847v76.329H498.69z" style="fill-rule:evenodd;fill:gray;stroke-linecap:square;stroke-width:1.541;stroke:#fff"/>
   <path transform="translate(0 2.362)" d="m544.88 181.53h-46.188v45.875c2.019-2.314 3.966-4.697 6.031-6.969a455 455 0 0115-15.719 455 455 0 0115.72-15c3.08-2.8 6.28-5.473 9.437-8.187z" style="fill-rule:evenodd;fill:gray;stroke-linecap:square;stroke-width:1.541;stroke:#fff"/>
   <path d="M498.69 107.55h75.847v76.329H498.69z" style="fill-rule:evenodd;fill:gray;stroke-linecap:square;stroke-width:1.541;stroke:#fff"/>
   <path d="M498.69 31.225h75.847v76.329H498.69zM422.84 947.17h75.847v76.329H422.84zm0-76.33h75.847v76.329H422.84z" style="fill-rule:evenodd;fill:gray;stroke-linecap:square;stroke-width:1.541;stroke:#fff"/>
   <path transform="translate(0 2.362)" d="m474.31 792.16h-51.469v76.312h75.844v-45.875c-2.747-3.148-5.559-6.245-8.219-9.469a456 456 0 01-13.438-17.125c-.94-1.256-1.792-2.577-2.719-3.844zm-45.12-76.35h-6.344v76.344h51.47c-3.362-4.593-6.717-9.184-9.907-13.906a453 453 0 01-22.687-37.344 452 452 0 01-10-19.531c-.882-1.831-1.673-3.718-2.531-5.562z" style="fill-rule:evenodd;fill:gray;stroke-linecap:square;stroke-width:1.541;stroke:#fff"/>
   <path transform="translate(0 2.362)" d="m422.84 701.78v14.031h6.344c-2.163-4.649-4.336-9.299-6.344-14.031z" style="fill-rule:evenodd;fill:gray;stroke-linecap:square;stroke-width:1.541;stroke:#fff"/>
   <path d="M422.84 412.87h75.847v76.329H422.84z" style="fill-rule:evenodd;fill:gray;stroke-linecap:square;stroke-width:1.541;stroke:#fff"/>
   <path d="M422.84 489.2h75.847v76.329H422.84z" style="fill-rule:evenodd"/>
   <path d="M422.84 336.54h75.847v76.329H422.84z" style="fill-rule:evenodd;fill:gray;stroke-linecap:square;stroke-width:1.541;stroke:#fff"/>
   <path transform="translate(0 2.362)" d="m474.31 257.84h-51.469v76.344h6.344c.858-1.845 1.649-3.731 2.531-5.563a451.4 451.4 0 0132.687-56.875c3.19-4.722 6.545-9.313 9.906-13.906z" style="fill-rule:evenodd;fill:gray;stroke-linecap:square;stroke-width:1.541;stroke:#fff"/>
   <path transform="translate(0 2.362)" d="m498.69 227.41v-45.875h-75.844v76.312h51.469c.927-1.267 1.78-2.587 2.719-3.844a455 455 0 0113.438-17.125c2.66-3.223 5.472-6.321 8.219-9.469z" style="fill-rule:evenodd;fill:gray;stroke-linecap:square;stroke-width:1.541;stroke:#fff"/>
   <path transform="translate(0 2.362)" d="m474.31 257.84c-3.361 4.593-6.716 9.184-9.906 13.906a453 453 0 00-22.687 37.344 452 452 0 00-10 19.531c-.883 1.831-1.673 3.718-2.531 5.563h69.5v-76.345z" style="fill-rule:evenodd;stroke-width:0"/>
   <path d="M422.84 107.55h75.847v76.329H422.84z" style="fill-rule:evenodd;fill:gray;stroke-linecap:square;stroke-width:1.541;stroke:#fff"/>
   <path d="M422.84 31.225h75.847v76.329H422.84zM346.99 947.17h75.847v76.329H346.99z" style="fill-rule:evenodd;fill:gray;stroke-linecap:square;stroke-width:1.541;stroke:#fff"/>
   <path transform="translate(0 2.362)" d="m347 792.16v152.66h75.844v-152.66z" style="fill-rule:evenodd;fill:#ff7f00"/>
   <path d="M346.99 718.18h75.847v76.329H346.99z" style="fill-rule:evenodd;fill:gray;stroke-linecap:square;stroke-width:1.541;stroke:#fff"/>
   <path transform="translate(0 2.362)" d="m401.69 639.5h-54.688v76.312h75.844v-14.031c-.067-.159-.151-.31-.219-.469a450 450 0 01-8.094-20.562 450 450 0 01-7.125-21.062c-2.07-6.658-3.95-13.4-5.718-20.188z" style="fill-rule:evenodd;fill:gray;stroke-linecap:square;stroke-width:1.541;stroke:#fff"/>
   <path transform="translate(0 2.362)" d="M388.75 563.16H347v76.344h54.688c-.115-.442-.261-.87-.375-1.313a450 450 0 0 1-5.062-21.906 452 452 0 0 1-4-22.312 453 453 0 0 1-2.875-22.656c-.275-2.7-.399-5.442-.625-8.156zm0-76.32H347v76.312h41.75c-.412-4.939-.872-9.861-1.125-14.844a461 461 0 0 1-.594-23.312c0-7.818.203-15.592.594-23.312.253-4.982.713-9.905 1.125-14.844z" style="fill-rule:evenodd;fill:gray;stroke-linecap:square;stroke-width:1.541;stroke:#fff"/>
   <path transform="translate(0 2.362)" d="m388.76 562.1c.227 2.714.35 6.509.625 9.209a453 453 0 002.869 22.656 452 452 0 004 22.312c1.508 7.371 3.2 14.67 5.062 21.906.114.442.26.87.375 1.312 1.768 6.786 3.648 13.53 5.719 20.188a450 450 0 007.125 21.062 449 449 0 008.094 20.562c.067.16.151.31.219.469 2.008 4.733 4.18 9.383 6.343 14.031h32.25v-76.312h-.093v-77.396h-38.5z" style="fill-rule:evenodd" sodipodi0:nodetypes="csssssssscccccccc"/>
   <path d="M346.99 412.87h75.847v76.329H346.99z" style="fill-rule:evenodd;fill:gray;stroke-linecap:square;stroke-width:1.541;stroke:#fff"/>
   <path transform="translate(0 2.362)" d="m388.75 486.84c-.412 4.939-.872 9.861-1.125 14.844a461 461 0 00-.594 23.312c0 7.818.203 15.592.594 23.312.253 4.982.713 9.905 1.125 14.844h34.094v-76.312z" style="fill-rule:evenodd" sodipodi0:nodetypes="cssscccc"/>
   <path d="M346.99 336.54h75.847v76.329H346.99zm0-76.33h75.847v76.329H346.99z" style="fill-rule:evenodd;fill:gray;stroke-linecap:square;stroke-width:1.541;stroke:#fff"/>
   <path transform="translate(0 2.362)" d="m347 105.19v152.66h75.844v-152.66z" style="fill-rule:evenodd;fill:#0080ff"/>
   <path d="M346.99 31.225h75.847v76.329H346.99zM271.15 947.17h75.847v76.329H271.15z" style="fill-rule:evenodd;fill:gray;stroke-linecap:square;stroke-width:1.541;stroke:#fff"/>
   <path d="m271.16 527.84v419.34h75.844v-419.34z" style="fill-rule:evenodd;fill:#ff0080"/>
   <path d="M271.16 107.55v420.29h75.844V107.55z" style="fill-rule:evenodd;fill:#00ff80"/>
   <path d="M271.15 31.225h75.847v76.329H271.15zM195.3 947.17h75.847v76.329H195.3zm0-76.33h75.847v76.329H195.3zm0-76.33h75.847v76.329H195.3zm0-76.33h75.847v76.329H195.3z" style="fill-rule:evenodd;fill:gray;stroke-linecap:square;stroke-width:1.541;stroke:#fff"/>
   <path d="M195.3 641.86h75.847v76.329H195.3zm0-76.33h75.847v76.329H195.3zm0-76.33h75.847v76.329H195.3zm0-76.33h75.847v76.329H195.3zm0-76.33h75.847v76.329H195.3zm0-76.33h75.847v76.329H195.3zm0-76.33h75.847v76.329H195.3zm0-76.33h75.847v76.329H195.3z" style="fill-rule:evenodd;fill:gray;stroke-linecap:square;stroke-width:1.541;stroke:#fff"/>
   <path d="M195.3 31.225h75.847v76.329H195.3zM119.45 947.17h75.847v76.329H119.45zm0-76.33h75.847v76.329H119.45zm0-76.33h75.847v76.329H119.45zm0-76.33h75.847v76.329H119.45z" style="fill-rule:evenodd;fill:gray;stroke-linecap:square;stroke-width:1.541;stroke:#fff"/>
   <path d="M119.45 641.86h75.847v76.329H119.45zm0-76.33h75.847v76.329H119.45zm0-76.33h75.847v76.329H119.45zm0-76.33h75.847v76.329H119.45zm0-76.33h75.847v76.329H119.45zm0-76.33h75.847v76.329H119.45zm0-76.33h75.847v76.329H119.45zm0-76.33h75.847v76.329H119.45z" style="fill-rule:evenodd;fill:gray;stroke-linecap:square;stroke-width:1.541;stroke:#fff"/>
   <path d="M119.45 31.225h75.847v76.329H119.45zM43.605 947.17h75.847v76.329H43.605zm0-76.33h75.847v76.329H43.605zm0-76.33h75.847v76.329H43.605zm0-76.33h75.847v76.329H43.605z" style="fill-rule:evenodd;fill:gray;stroke-linecap:square;stroke-width:1.541;stroke:#fff"/>
   <path d="M43.605 641.86h75.847v76.329H43.605zm0-76.33h75.847v76.329H43.605zm0-76.33h75.847v76.329H43.605zm0-76.33h75.847v76.329H43.605zm0-76.33h75.847v76.329H43.605zm0-76.33h75.847v76.329H43.605zm0-76.33h75.847v76.329H43.605zm0-76.33h75.847v76.329H43.605z" style="fill-rule:evenodd;fill:gray;stroke-linecap:square;stroke-width:1.541;stroke:#fff"/>
   <path d="M43.605 31.225h75.847v76.329H43.605z" style="fill-rule:evenodd;fill:gray;stroke-linecap:square;stroke-width:1.541;stroke:#fff"/>
   <path transform="translate(0 2.362)" d="m1136.2 867.69a452.96 452.96 0 01-592.35.047" style="fill-rule:evenodd;fill:#ff0" sodipodi0:cx="840" sodipodi0:cy="525" sodipodi0:end="2.283" sodipodi0:open="true" sodipodi0:rx="452.957" sodipodi0:ry="452.957" sodipodi0:start=".858" sodipodi0:type="arc"/>
   <path transform="translate(0 2.362)" d="m474.31 792.16c.927 1.267 1.78 2.587 2.719 3.844a455 455 0 0013.438 17.125c2.66 3.223 5.472 6.321 8.219 9.469 2.019 2.313 3.966 4.696 6.03 6.968a455 455 0 0015 15.72 455 455 0 0015.72 15c3.08 2.799 6.28 5.472 9.437 8.187h68.281v-76.313z" style="fill-rule:evenodd;fill:#fff"/>
   <path transform="translate(0 2.362)" d="m429.19 715.81c.858 1.845 1.649 3.731 2.531 5.563a451.4 451.4 0 0032.687 56.874c3.19 4.723 6.545 9.314 9.906 13.906h63.33v-76.343z" style="fill-rule:evenodd" sodipodi0:nodetypes="csssscccc"/>
   <path transform="translate(0 2.362)" d="m1067.3 792.16v76.312h67.781c3.156-2.715 6.358-5.388 9.438-8.187a455 455 0 0015.718-15 455 455 0 0015-15.72c2.066-2.271 4.013-4.655 6.032-6.968 2.747-3.148 5.559-6.246 8.219-9.47a456 456 0 0013.437-17.124c.94-1.257 1.792-2.577 2.72-3.844h-138.34z" style="fill-rule:evenodd;fill:#fff"/>
   <path d="M613.2 794.51h454.15v76.329H613.2z" style="fill-rule:evenodd"/>
   <path d="m536.62 336.55v152.66h151.69v-152.66z" style="fill-rule:evenodd;fill:#0ff"/>
   <path d="m688.31 336.55v152.66h151.69v-152.66z" style="fill-rule:evenodd;fill:#0f0"/>
   <path d="m840 336.55v152.66h151.69v-152.66z" style="fill-rule:evenodd;fill:#f0f"/>
   <path d="m991.69 336.55v152.66h151.69v-152.66z" style="fill-rule:evenodd;fill:#ff0002"/>
   <path d="m536.61 336.54v152.66h-147.97c4.517-54.15 18.518-105.6 40.406-152.66h107.56z" style="fill-rule:evenodd;fill:#ff0"/>
   <path d="m802.08 527.35h75.844" style="fill-rule:evenodd;stroke-linecap:square;stroke-width:1.514;stroke:#fff"/>
   <path transform="translate(0 2.362)" d="m422.84 562.1-.003-75.268" style="fill:none;stroke-width:1.51;stroke:#fff"/>
   <path d="m498.69 565.53-.003-76.329m75.853 76.329-.003-76.329m75.853 76.329-.003-76.329m75.843 76.329-.003-76.329m75.853 76.329-.003-76.329m151.69 76.329-.003-76.329m75.833 76.329v-76.329m75.9 76.329v-76.329m75.8 76.329v-76.329m75.9 76.329v-76.329" style="fill:none;stroke-width:1.51;stroke:#fff"/>
   <path d="m1291.3 564.47c-.227 2.714-.35 6.509-.625 9.209a453 453 0 01-2.869 22.656 451 451 0 01-4 22.312 450 450 0 01-5.062 21.906c-.114.442-.26.87-.375 1.312-1.768 6.786-3.648 13.53-5.719 20.188a450 450 0 01-7.125 21.062 449 449 0 01-8.094 20.562c-.067.16-.151.31-.219.469-2.008 4.733-4.18 9.383-6.343 14.031h-32.25v-76.312h.094v-77.396h38.5z" style="fill-rule:evenodd" sodipodi0:nodetypes="csssssssscccccccc"/>
   <path d="m802.08 412.85v229h75.844v-229z" style="fill-rule:evenodd;stroke-linecap:square;stroke-width:1.541;stroke:#fff"/>
   <path transform="translate(0 2.362)" d="m387.04 525h905.91" style="fill-rule:evenodd;stroke-linecap:square;stroke-width:1.514;stroke:#fff"/>
   <path d="m840 413.37v228.48" style="fill-rule:evenodd;stroke-linecap:square;stroke-width:1.514;stroke:#fff"/>
   <path transform="translate(0 2.362)" d="m545.42 181.53c-3.14 2.715-6.325 5.388-9.389 8.188a454 454 0 00-15.638 15 454 454 0 00-14.923 15.719c-2.054 2.271-3.992 4.655-6 6.968-2.733 3.148-5.53 6.246-8.177 9.47a455 455 0 00-13.368 17.124c-.934 1.257-1.782 2.577-2.704 3.844h175.16v-76.313zm484.18 0v76.312h174.96c-.921-1.267-1.768-2.587-2.702-3.844a455 455 0 00-13.354-17.125c-2.643-3.223-5.438-6.321-8.167-9.469-2.007-2.313-3.942-4.696-5.994-6.968a454 454 0 00-14.907-15.72 454 454 0 00-15.621-15c-3.06-2.799-6.242-5.472-9.379-8.187h-104.84z" style="fill-rule:evenodd;stroke-linecap:square;stroke-width:1.541;stroke:#000"/>
   <path transform="translate(0 2.362)" d="m835.22 72.625c-103.03 1.082-205.76 37.235-289.1 108.44l587.97.188c-85.9-73.52-192.58-109.74-298.88-108.62zm-222.75 108.91v76.312h455.06v-76.312z" style="fill:#fff;stroke-linecap:square;stroke-width:1.541;stroke:#fff"/>
   <path transform="matrix(-.83871 0 0 1 76.503 2.362)" d="m-972.71 257.84h62.299v76.334h-62.299z" style="fill-rule:evenodd;stroke-width:0"/>
   <path transform="matrix(-.83871 0 0 1 76.503 2.362)" d="m-910.41 257.84h62.299v76.334h-62.299zm124.6.01h62.299v76.334h-62.299z" style="fill-rule:evenodd;fill:#bfbfbf;stroke-width:0"/>
   <path transform="matrix(-.83871 0 0 1 76.503 2.362)" d="m-848.11 257.85h62.299v76.334h-62.299zm124.6 0h62.299v76.334h-62.299z" style="fill-rule:evenodd;stroke-width:0"/>
   <path transform="matrix(-.83871 0 0 1 76.503 2.362)" d="m-661.21 257.85h62.299v76.334h-62.299zm124.6 0h62.299v76.334h-62.299z" style="fill-rule:evenodd;fill:#bfbfbf;stroke-width:0"/>
   <path transform="matrix(-.83871 0 0 1 76.503 2.362)" d="m-598.91 257.85h62.299v76.334h-62.299zm-747.59-.01h62.299v76.334h-62.299z" style="fill-rule:evenodd;stroke-width:0"/>
   <path transform="matrix(-.83871 0 0 1 76.503 2.362)" d="m-1284.2 257.84h62.299v76.334h-62.299zm124.6.01h62.299v76.334h-62.299z" style="fill-rule:evenodd;fill:#bfbfbf;stroke-width:0"/>
   <path transform="matrix(-.83871 0 0 1 76.503 2.362)" d="m-1221.9 257.85h62.299v76.334h-62.299zm124.6 0h62.299v76.334h-62.299z" style="fill-rule:evenodd;stroke-width:0"/>
   <path transform="matrix(-.83871 0 0 1 76.503 2.362)" d="M-1035 257.85h62.299v76.334H-1035z" style="fill-rule:evenodd;fill:#bfbfbf;stroke-width:0"/>
   <path transform="translate(0 2.362)" d="m647.37 181.53h5.003v78.604h-5.003zm40.94-76.34v76.312h303.38v-76.312z" style="fill-rule:evenodd"/>
   <path d="M1560.5 2.362h75.847v28.863H1560.5z" style="fill-rule:evenodd"/>
   <path d="M1484.7 2.362h75.847v28.863H1484.7z" style="fill-rule:evenodd;fill:#fff"/>
   <path d="M1408.9 2.362h75.847v28.863H1408.9z" style="fill-rule:evenodd"/>
   <path d="M1333 2.362h75.847v28.863H1333z" style="fill-rule:evenodd;fill:#fff"/>
   <path d="M1257.2 2.362h75.847v28.863H1257.2z" style="fill-rule:evenodd"/>
   <path d="M1181.3 2.362h75.847v28.863H1181.3z" style="fill-rule:evenodd;fill:#fff"/>
   <path d="M1105.5 2.362h75.847v28.863H1105.5z" style="fill-rule:evenodd"/>
   <path d="M1029.6 2.362h75.847v28.863H1029.6z" style="fill-rule:evenodd;fill:#fff"/>
   <path d="M953.77 2.362h75.847v28.863H953.77z" style="fill-rule:evenodd"/>
   <path d="M877.92 2.362h75.847v28.863H877.92z" style="fill-rule:evenodd;fill:#fff"/>
   <path d="M802.08 2.362h75.847v28.863H802.08z" style="fill-rule:evenodd"/>
   <path d="M726.23 2.362h75.847v28.863H726.23z" style="fill-rule:evenodd;fill:#fff"/>
   <path d="M650.38 2.362h75.847v28.863H650.38z" style="fill-rule:evenodd"/>
   <path d="M574.54 2.362h75.847v28.863H574.54z" style="fill-rule:evenodd;fill:#fff"/>
   <path d="M498.69 2.362h75.847v28.863H498.69z" style="fill-rule:evenodd"/>
   <path d="M422.84 2.362h75.847v28.863H422.84z" style="fill-rule:evenodd;fill:#fff"/>
   <path d="M346.99 2.362h75.847v28.863H346.99z" style="fill-rule:evenodd"/>
   <path d="M271.15 2.362h75.847v28.863H271.15z" style="fill-rule:evenodd;fill:#fff"/>
   <path d="M195.3 2.362h75.847v28.863H195.3z" style="fill-rule:evenodd"/>
   <path d="M119.45 2.362h75.847v28.863H119.45z" style="fill-rule:evenodd;fill:#fff"/>
   <path d="M43.605 2.362h75.847v28.863H43.605z" style="fill-rule:evenodd"/>
   <path transform="translate(0 1021.1)" d="M1560.5 2.362h75.847v28.863H1560.5z" style="fill-rule:evenodd"/>
   <path transform="translate(0 1021.1)" d="M1484.7 2.362h75.847v28.863H1484.7z" style="fill-rule:evenodd;fill:#fff"/>
   <path transform="translate(0 1021.1)" d="M1408.9 2.362h75.847v28.863H1408.9z" style="fill-rule:evenodd"/>
   <path transform="translate(0 1021.1)" d="M1333 2.362h75.847v28.863H1333z" style="fill-rule:evenodd;fill:#fff"/>
   <path transform="translate(0 1021.1)" d="M1257.2 2.362h75.847v28.863H1257.2z" style="fill-rule:evenodd"/>
   <path transform="translate(0 1021.1)" d="M1181.3 2.362h75.847v28.863H1181.3z" style="fill-rule:evenodd;fill:#fff"/>
   <path transform="translate(0 1021.1)" d="M1105.5 2.362h75.847v28.863H1105.5z" style="fill-rule:evenodd"/>
   <path transform="translate(0 1021.1)" d="M1029.6 2.362h75.847v28.863H1029.6z" style="fill-rule:evenodd;fill:#fff"/>
   <path transform="translate(0 1021.1)" d="M953.77 2.362h75.847v28.863H953.77z" style="fill-rule:evenodd"/>
   <path transform="translate(0 1021.1)" d="M877.92 2.362h75.847v28.863H877.92z" style="fill-rule:evenodd;fill:#fff"/>
   <path transform="translate(0 1021.1)" d="M802.08 2.362h75.847v28.863H802.08z" style="fill-rule:evenodd"/>
   <path transform="translate(0 1021.1)" d="M726.23 2.362h75.847v28.863H726.23z" style="fill-rule:evenodd;fill:#fff"/>
   <path transform="translate(0 1021.1)" d="M650.38 2.362h75.847v28.863H650.38z" style="fill-rule:evenodd"/>
   <path transform="translate(0 1021.1)" d="M574.54 2.362h75.847v28.863H574.54z" style="fill-rule:evenodd;fill:#fff"/>
   <path transform="translate(0 1021.1)" d="M498.69 2.362h75.847v28.863H498.69z" style="fill-rule:evenodd"/>
   <path transform="translate(0 1021.1)" d="M422.84 2.362h75.847v28.863H422.84z" style="fill-rule:evenodd;fill:#fff"/>
   <path transform="translate(0 1021.1)" d="M346.99 2.362h75.847v28.863H346.99z" style="fill-rule:evenodd"/>
   <path transform="translate(0 1021.1)" d="M271.15 2.362h75.847v28.863H271.15z" style="fill-rule:evenodd;fill:#fff"/>
   <path transform="translate(0 1021.1)" d="M195.3 2.362h75.847v28.863H195.3z" style="fill-rule:evenodd"/>
   <path transform="translate(0 1021.1)" d="M119.45 2.362h75.847v28.863H119.45z" style="fill-rule:evenodd;fill:#fff"/>
   <path transform="translate(0 1021.1)" d="M43.605 2.362h75.847v28.863H43.605z" style="fill-rule:evenodd"/>
   <path transform="matrix(.57491 0 0 1 18.536 0)" d="m-32.242 947.17h75.847v76.329h-75.847z" style="fill-rule:evenodd"/>
   <path transform="matrix(.57491 0 0 1 18.536 0)" d="m-32.242 870.84h75.847v76.329h-75.847z" style="fill-rule:evenodd;fill:#fff"/>
   <path transform="matrix(.57491 0 0 1 18.536 0)" d="m-32.242 794.51h75.847v76.329h-75.847z" style="fill-rule:evenodd"/>
   <path transform="matrix(.57491 0 0 1 18.536 0)" d="m-32.242 718.18h75.847v76.329h-75.847z" style="fill-rule:evenodd;fill:#fff"/>
   <path transform="matrix(.57491 0 0 1 18.536 0)" d="m-32.242 641.86h75.847v76.329h-75.847z" style="fill-rule:evenodd"/>
   <path transform="matrix(.57491 0 0 1 18.536 0)" d="m-32.242 565.53h75.847v76.329h-75.847z" style="fill-rule:evenodd;fill:#fff"/>
   <path transform="matrix(.57491 0 0 1 18.536 0)" d="m-32.242 489.2h75.847v76.329h-75.847z" style="fill-rule:evenodd"/>
   <path transform="matrix(.57491 0 0 1 18.536 0)" d="m-32.242 412.87h75.847v76.329h-75.847z" style="fill-rule:evenodd;fill:#fff"/>
   <path transform="matrix(.57491 0 0 1 18.536 0)" d="m-32.242 336.54h75.847v76.329h-75.847z" style="fill-rule:evenodd"/>
   <path transform="matrix(.57491 0 0 1 18.536 0)" d="m-32.242 260.21h75.847v76.329h-75.847z" style="fill-rule:evenodd;fill:#fff"/>
   <path transform="matrix(.57491 0 0 1 18.536 0)" d="m-32.242 183.88h75.847v76.329h-75.847z" style="fill-rule:evenodd"/>
   <path transform="matrix(.57491 0 0 1 18.536 0)" d="m-32.242 107.55h75.847v76.329h-75.847z" style="fill-rule:evenodd;fill:#fff"/>
   <path transform="matrix(.57491 0 0 1 18.536 0)" d="m-32.242 31.225h75.847v76.329h-75.847z" style="fill-rule:evenodd"/>
   <path transform="matrix(.57491 0 0 1 1654.9 0)" d="m-32.242 947.17h75.847v76.329h-75.847z" style="fill-rule:evenodd"/>
   <path transform="matrix(.57491 0 0 1 1654.9 0)" d="m-32.242 870.84h75.847v76.329h-75.847z" style="fill-rule:evenodd;fill:#fff"/>
   <path transform="matrix(.57491 0 0 1 1654.9 0)" d="m-32.242 794.51h75.847v76.329h-75.847z" style="fill-rule:evenodd"/>
   <path transform="matrix(.57491 0 0 1 1654.9 0)" d="m-32.242 718.18h75.847v76.329h-75.847z" style="fill-rule:evenodd;fill:#fff"/>
   <path transform="matrix(.57491 0 0 1 1654.9 0)" d="m-32.242 641.86h75.847v76.329h-75.847z" style="fill-rule:evenodd"/>
   <path transform="matrix(.57491 0 0 1 1654.9 0)" d="m-32.242 565.53h75.847v76.329h-75.847z" style="fill-rule:evenodd;fill:#fff"/>
   <path transform="matrix(.57491 0 0 1 1654.9 0)" d="m-32.242 489.2h75.847v76.329h-75.847z" style="fill-rule:evenodd"/>
   <path transform="matrix(.57491 0 0 1 1654.9 0)" d="m-32.242 412.87h75.847v76.329h-75.847z" style="fill-rule:evenodd;fill:#fff"/>
   <path transform="matrix(.57491 0 0 1 1654.9 0)" d="m-32.242 336.54h75.847v76.329h-75.847z" style="fill-rule:evenodd"/>
   <path transform="matrix(.57491 0 0 1 1654.9 0)" d="m-32.242 260.21h75.847v76.329h-75.847z" style="fill-rule:evenodd;fill:#fff"/>
   <path transform="matrix(.57491 0 0 1 1654.9 0)" d="m-32.242 183.88h75.847v76.329h-75.847z" style="fill-rule:evenodd"/>
   <path transform="matrix(.57491 0 0 1 1654.9 0)" d="m-32.242 107.55h75.847v76.329h-75.847z" style="fill-rule:evenodd;fill:#fff"/>
   <path transform="matrix(.57491 0 0 1 1654.9 0)" d="m-32.242 31.225h75.847v76.329h-75.847z" style="fill-rule:evenodd"/>
   <path d="m1251.4 718.18c-.858 1.845-1.649 3.731-2.531 5.563a451.4 451.4 0 01-32.687 56.874c-3.19 4.723-6.545 9.314-9.906 13.906h-63.33v-76.343z" style="fill-rule:evenodd;fill:#fff" sodipodi0:nodetypes="csssscccc"/>
   <path id="g" d="m461.35 565.18h153v153h-153z" style="fill:url(#f);stroke-width:1.0023"/>
   <use id="h" xlink:href="#g"/>
   <use id="i" xlink:href="#h"/>
   <use id="j" xlink:href="#i"/>
   <use id="k" xlink:href="#j"/>
   <use xlink:href="#k"/>
   <path id="l" d="m611.8 565.18h153v153h-153z" style="fill:url(#a);stroke-width:.33403"/>
   <use xlink:href="#l"/>
   <path id="n" d="m764.8 565.18h153v153h-153z" style="fill:url(#m);stroke-width:.33403"/>
   <use xlink:href="#n"/>
   <path d="m917.8 565.18h153v153h-153z" style="fill:url(#o)"/>
   <path d="m1070.1 565.09h153v153h-153z" style="fill:url(#p)"/>
  </g>
  <path d="M0 0h43.605v28.863H0zm0 1021.1h43.605v28.863H0zm1636.4 0h43.605v28.863H1636.4zm0-1021.1h43.605v28.863H1636.4z" style="fill-rule:evenodd;fill:#fff"/>
 </svg>
 <circle cx="118" cy="118" r="2" fill="#f5c211" opacity=".7"/>
</svg>
